{
 "accessors": [
  {
   "componentType": 5126,
   "type": "VEC3",
   "count": 7742,
   "max": [
    458.7309875488281,
    412.4010009765625,
    647.89501953125
   ],
   "min": [
    -458.7309875488281,
    -110.27899932861328,
    -763.1900024414062
   ],
   "bufferView": 3
  },
  {
   "componentType": 5126,
   "type": "VEC3",
   "count": 7742,
   "bufferView": 4
  },
  {
   "componentType": 5126,
   "type": "VEC2",
   "count": 7742,
   "bufferView": 5
  },
  {
   "componentType": 5123,
   "type": "SCALAR",
   "count": 18612,
   "bufferView": 6
  },
  {
   "componentType": 5126,
   "type": "VEC3",
   "count": 4910,
   "max": [
    96.5802001953125,
    71.07599639892578,
    -335.8900146484375
   ],
   "min": [
    -96.98359680175781,
    -76.38619995117188,
    -432.0069885253906
   ],
   "bufferView": 7
  },
  {
   "componentType": 5126,
   "type": "VEC3",
   "count": 4910,
   "bufferView": 8
  },
  {
   "componentType": 5126,
   "type": "VEC2",
   "count": 4910,
   "bufferView": 9
  },
  {
   "componentType": 5123,
   "type": "SCALAR",
   "count": 11640,
   "bufferView": 10
  },
  {
   "componentType": 5126,
   "type": "VEC3",
   "count": 440,
   "max": [
    32.87990188598633,
    106.22200012207031,
    -433.5679931640625
   ],
   "min": [
    -32.88079833984375,
    59.29399871826172,
    -480.7749938964844
   ],
   "bufferView": 11
  },
  {
   "componentType": 5126,
   "type": "VEC3",
   "count": 440,
   "bufferView": 12
  },
  {
   "componentType": 5126,
   "type": "VEC2",
   "count": 440,
   "bufferView": 13
  },
  {
   "componentType": 5123,
   "type": "SCALAR",
   "count": 1134,
   "bufferView": 14
  },
  {
   "componentType": 5126,
   "type": "VEC3",
   "count": 879,
   "max": [
    -83.60690307617188,
    66.24749755859375,
    202.2449951171875
   ],
   "min": [
    -99.11609649658203,
    36.0447998046875,
    -394.135986328125
   ],
   "bufferView": 15
  },
  {
   "componentType": 5126,
   "type": "VEC3",
   "count": 879,
   "bufferView": 16
  },
  {
   "componentType": 5126,
   "type": "VEC2",
   "count": 879,
   "bufferView": 17
  },
  {
   "componentType": 5123,
   "type": "SCALAR",
   "count": 3240,
   "bufferView": 18
  }
 ],
 "asset": {
  "version": "2.0",
  "generator": "clara.io"
 },
 "bufferViews": [
  {
   "buffer": 0,
   "byteOffset": 0,
   "byteLength": 6686
  },
  {
   "buffer": 0,
   "byteOffset": 6688,
   "byteLength": 156824
  },
  {
   "buffer": 0,
   "byteOffset": 163512,
   "byteLength": 356774
  },
  {
   "buffer": 0,
   "byteOffset": 520288,
   "byteLength": 92904,
   "target": 34962,
   "byteStride": 12
  },
  {
   "buffer": 0,
   "byteOffset": 613192,
   "byteLength": 92904,
   "target": 34962,
   "byteStride": 12
  },
  {
   "buffer": 0,
   "byteOffset": 706096,
   "byteLength": 61936,
   "target": 34962,
   "byteStride": 8
  },
  {
   "buffer": 0,
   "byteOffset": 768032,
   "byteLength": 37224,
   "target": 34963
  },
  {
   "buffer": 0,
   "byteOffset": 805256,
   "byteLength": 58920,
   "target": 34962,
   "byteStride": 12
  },
  {
   "buffer": 0,
   "byteOffset": 864176,
   "byteLength": 58920,
   "target": 34962,
   "byteStride": 12
  },
  {
   "buffer": 0,
   "byteOffset": 923096,
   "byteLength": 39280,
   "target": 34962,
   "byteStride": 8
  },
  {
   "buffer": 0,
   "byteOffset": 962376,
   "byteLength": 23280,
   "target": 34963
  },
  {
   "buffer": 0,
   "byteOffset": 985656,
   "byteLength": 5280,
   "target": 34962,
   "byteStride": 12
  },
  {
   "buffer": 0,
   "byteOffset": 990936,
   "byteLength": 5280,
   "target": 34962,
   "byteStride": 12
  },
  {
   "buffer": 0,
   "byteOffset": 996216,
   "byteLength": 3520,
   "target": 34962,
   "byteStride": 8
  },
  {
   "buffer": 0,
   "byteOffset": 999736,
   "byteLength": 2268,
   "target": 34963
  },
  {
   "buffer": 0,
   "byteOffset": 1002004,
   "byteLength": 10548,
   "target": 34962,
   "byteStride": 12
  },
  {
   "buffer": 0,
   "byteOffset": 1012552,
   "byteLength": 10548,
   "target": 34962,
   "byteStride": 12
  },
  {
   "buffer": 0,
   "byteOffset": 1023100,
   "byteLength": 7032,
   "target": 34962,
   "byteStride": 8
  },
  {
   "buffer": 0,
   "byteOffset": 1030132,
   "byteLength": 6480,
   "target": 34963
  }
 ],
 "buffers": [
  {
   "byteLength": 1036612,
   "uri": "data:application/octet-stream;base64,"
  }
 ],
 "images": [
  {
   "name": "spstob_3.jpg",
   "bufferView": 0,
   "mimeType": "image/jpeg"
  },
  {
   "name": "spstob_2.jpg",
   "bufferView": 1,
   "mimeType": "image/jpeg"
  },
  {
   "name": "spstob_1.jpg",
   "bufferView": 2,
   "mimeType": "image/jpeg"
  }
 ],
 "materials": [
  {
   "name": "spstob_1",
   "pbrMetallicRoughness": {
    "baseColorTexture": {
     "index": 2,
     "texCoord": 0
    },
    "roughnessFactor": 0.0705,
    "metallicFactor": 0
   }
  },
  {
   "name": "spstob_3",
   "pbrMetallicRoughness": {
    "baseColorTexture": {
     "index": 0,
     "texCoord": 0
    },
    "roughnessFactor": 0.14,
    "metallicFactor": 0
   }
  },
  {
   "name": "spstob_2",
   "pbrMetallicRoughness": {
    "baseColorTexture": {
     "index": 1,
     "texCoord": 0
    },
    "roughnessFactor": 0.0631,
    "metallicFactor": 0
   }
  },
  {
   "name": "Metal",
   "pbrMetallicRoughness": {
    "baseColorFactor": [
     0.5333333333333333,
     0.5333333333333333,
     0.5333333333333333,
     1
    ],
    "roughnessFactor": 0.1612,
    "metallicFactor": 0
   }
  }
 ],
 "meshes": [
  {
   "primitives": [
    {
     "indices": 3,
     "material": 0,
     "mode": 4,
     "attributes": {
      "POSITION": 0,
      "NORMAL": 1,
      "TEXCOORD_0": 2
     }
    }
   ]
  },
  {
   "primitives": [
    {
     "indices": 7,
     "material": 3,
     "mode": 4,
     "attributes": {
      "POSITION": 4,
      "NORMAL": 5,
      "TEXCOORD_0": 6
     }
    }
   ]
  },
  {
   "primitives": [
    {
     "indices": 11,
     "material": 1,
     "mode": 4,
     "attributes": {
      "POSITION": 8,
      "NORMAL": 9,
      "TEXCOORD_0": 10
     }
    }
   ]
  },
  {
   "primitives": [
    {
     "indices": 15,
     "material": 2,
     "mode": 4,
     "attributes": {
      "POSITION": 12,
      "NORMAL": 13,
      "TEXCOORD_0": 14
     }
    }
   ]
  }
 ],
 "nodes": [
  {
   "name": "LightPreset",
   "translation": [
    0,
    151.06100463867188,
    -57.647491455078125
   ]
  },
  {
   "name": "spaceshutt_0",
   "translation": [
    23.61079978942871,
    55.55149841308594,
    0
   ],
   "mesh": 0
  },
  {
   "name": "spaceshutt_0",
   "mesh": 1
  },
  {
   "name": "spaceshutt_0",
   "mesh": 2
  },
  {
   "name": "spaceshutt_0",
   "mesh": 3
  }
 ],
 "samplers": [
  {
   "magFilter": 9729,
   "minFilter": 9987,
   "wrapS": 10497,
   "wrapT": 10497
  }
 ],
 "scene": 0,
 "scenes": [
  {
   "nodes": [
    0,
    1,
    2,
    3,
    4
   ]
  }
 ],
 "textures": [
  {
   "sampler": 0,
   "source": 0
  },
  {
   "sampler": 0,
   "source": 1
  },
  {
   "sampler": 0,
   "source": 2
  }
 ]
}